<?xml version="1.0" encoding="UTF-8"?><svg id="a" xmlns="http://www.w3.org/2000/svg" width="5829.1825" height="1195.4841" viewBox="0 0 5829.1825 1195.4841"><defs><style>.h{fill:#ffd400;stroke-width:0px;}</style></defs><path class="h" d="m5829.1825,98.4291v1097.0551H0V182.5342C630.3109,296.0435,1269.3657,100.469,1905.0001,22.0648c199.6404-24.6305,404.4805-37.3991,600.0483,9.6709,143.8063,34.6174,278.2646,100.5965,420.8141,140.0699,142.5495,39.4666,302.8402,49.8037,431.6664-22.8791,39.6315-22.3639,75.9041-52.3244,119.7185-64.6328,68.5822-19.2662,140.6881,8.201,206.4954,35.476,186.7279,77.3808,377.0892,157.9899,578.8316,170.4356,164.8927,10.1723,328.8995-25.8806,489.1697-65.9516,183.1287-45.7856,364.87-97.121,544.8803-153.91,179.3648-56.5829,403.2032-108.4335,532.5582,28.0854Z"/></svg>